<svg xmlns="http://www.w3.org/2000/svg" viewBox="0 0 284.6 69.2">
  <path d="M87.9 17.1V26H85l-7.2 25.8h-12l-5.6-17.2-5.9 17.2H42.6L35.2 26h-3v-8.8h16.3V26h-2.8l3.7 14.7L56 17.2h8.4l6.9 23L74.4 26h-2.9v-8.8h16.4zm88.9 0V26h-3L164 51.8h-11.7L142.6 26h-3v-8.8h16.3V26H153l5.1 14.3 5.2-14.3h-2.8v-8.8h16.3zm25.2 0V26h-4.3v17h4.3v8.8h-19.4V43h4.3V26h-4.3v-8.8H202zm22.8 2.9c5.8-5.1 14.7-4.6 19.9 1.3 2.3 2.6 3.5 5.9 3.5 9.4V43h4.3v8.8h-14.6V31.2c0-3.2-2.6-5.9-5.9-5.9-3.2 0-5.9 2.6-5.9 5.9V43h4.3v8.8H211V43h4.3V26H211v-8.8h13.9V20M101.7 34.6c0-4.8 3.9-8.8 8.8-8.8s8.8 3.9 8.8 8.8-3.9 8.8-8.8 8.8-8.8-4-8.8-8.8m-10.3 0c0 10.1 8.2 18.2 18.2 18.2 4 0 7.8-1.3 11-3.7v2.7h13.2V43h-4.3V26h4.3v-8.8h-13.2v2.9c-8-6.1-19.4-4.5-25.5 3.5-2.4 3.2-3.7 7-3.7 11M35.2 69.2C16.1 69.5.3 54.3 0 35.2-.3 16.1 14.9.3 34 0h215.5c19.1-.3 34.8 14.9 35.2 34 .3 19.1-14.9 34.8-34 35.2H35.2zm214.3-8.7c14.3.3 26.2-11.1 26.4-25.4.3-14.3-11.1-26.2-25.4-26.4H35.2C20.9 8.4 9 19.8 8.7 34.1c-.2 14.3 11.1 26.1 25.5 26.4h215.3z" fill="#fff"/>
</svg>
