<svg width="506" height="169" xmlns="http://www.w3.org/2000/svg"><defs><filter id="a"><feColorMatrix in="SourceGraphic" values="0 0 0 0 0.074510 0 0 0 0 0.262745 0 0 0 0 0.596078 0 0 0 1.000000 0"/></filter></defs><g fill="none" fill-rule="evenodd"><rect fill="#E7ECF4" y="149.586" width="506" height="18.828" rx="8"/><g fill="#134398"><path d="M86.608 88.336v11.482a1.437 1.437 0 01-1.436 1.436h-5.741a1.435 1.435 0 01-1.435-1.436v-4.306H50.724v4.306a1.437 1.437 0 01-1.435 1.436h-5.742a1.435 1.435 0 01-1.435-1.436v-4.306H14.841v4.306a1.437 1.437 0 01-1.436 1.436H7.664a1.435 1.435 0 01-1.435-1.436V88.336c0-.793.642-1.435 1.435-1.435h77.507a1.437 1.437 0 011.436 1.435zM30.63 52.453h-2.871v8.612h2.87v-8.612zM13.406 82.594V53.888c0-.793.642-1.435 1.435-1.435H24.89V62.5a1.437 1.437 0 001.435 1.436h5.741a1.437 1.437 0 001.436-1.436V52.453h10.047a1.437 1.437 0 011.436 1.435v28.707a1.437 1.437 0 01-1.436 1.435H14.842a1.435 1.435 0 01-1.435-1.435h-.001zm20.094-5.74a1.437 1.437 0 001.436 1.435h2.87a1.435 1.435 0 100-2.871h-2.87c-.793 0-1.436.642-1.436 1.435zm31.577-15.79v-8.612h-2.87v8.612h2.87zm-17.224 21.53V53.888c0-.793.643-1.435 1.436-1.435h10.047V62.5a1.437 1.437 0 001.436 1.436h5.741a1.437 1.437 0 001.435-1.436V52.453h10.048a1.437 1.437 0 011.436 1.435v28.707a1.437 1.437 0 01-1.436 1.435H49.29a1.435 1.435 0 01-1.436-1.435zm20.095-5.74a1.437 1.437 0 001.435 1.435h2.87a1.435 1.435 0 100-2.871h-2.87c-.793 0-1.435.642-1.435 1.435zM47.853 48.146V25.182c0-.793.643-1.436 1.436-1.436h7.176v7.177a1.437 1.437 0 001.436 1.435h5.741a1.437 1.437 0 001.435-1.435v-7.177h7.177a1.437 1.437 0 011.435 1.436v22.965a1.437 1.437 0 01-1.435 1.435H49.289a1.435 1.435 0 01-1.436-1.435zm14.354-5.741a1.437 1.437 0 001.435 1.435h2.87a1.435 1.435 0 100-2.87h-2.87c-.793 0-1.435.642-1.435 1.435zm0-18.66h-2.871v5.742h2.87v-5.741z" fill-rule="nonzero"/><path d="M0 105h93v12H0z"/><g fill-rule="nonzero"><path d="M132.048 161.552c-15.071 0-27.345-12.256-27.345-27.31 0-15.088 12.274-27.345 27.345-27.345 15.054 0 27.31 12.274 27.31 27.345 0 15.054-12.256 27.31-27.31 27.31zm0-43.83c-9.11 0-16.503 7.411-16.503 16.504 0 9.092 7.41 16.47 16.503 16.47 9.075 0 16.47-7.378 16.47-16.47 0-9.093-7.378-16.503-16.47-16.503zM187.383 161.552c-15.087 0-27.344-12.256-27.344-27.31 0-15.088 12.257-27.345 27.344-27.345 15.055 0 27.311 12.274 27.311 27.345 0 15.054-12.256 27.31-27.31 27.31zm0-43.83c-9.109 0-16.503 7.411-16.503 16.504 0 9.092 7.411 16.47 16.503 16.47 9.076 0 16.47-7.378 16.47-16.47 0-9.093-7.377-16.503-16.47-16.503zM318.979 161.552c-15.072 0-27.328-12.256-27.328-27.31 0-15.088 12.256-27.345 27.328-27.345 15.07 0 27.31 12.274 27.31 27.345 0 15.054-12.223 27.31-27.31 27.31zm0-43.83c-9.11 0-16.487 7.411-16.487 16.504 0 9.092 7.394 16.47 16.487 16.47 9.092 0 16.47-7.378 16.47-16.47 0-9.093-7.378-16.503-16.47-16.503zM374.314 161.552c-15.07 0-27.344-12.256-27.344-27.31 0-15.088 12.273-27.345 27.344-27.345 15.072 0 27.311 12.274 27.311 27.345 0 15.054-12.24 27.31-27.31 27.31zm0-43.83c-9.109 0-16.503 7.411-16.503 16.504 0 9.092 7.41 16.47 16.503 16.47s16.47-7.378 16.47-16.47c0-9.093-7.377-16.503-16.47-16.503zM456.133 161.552c-15.088 0-27.344-12.256-27.344-27.31 0-15.088 12.256-27.345 27.344-27.345 15.054 0 27.294 12.274 27.294 27.345 0 15.054-12.257 27.31-27.294 27.31zm0-43.83c-9.11 0-16.52 7.411-16.52 16.504 0 9.092 7.41 16.47 16.52 16.47 9.06 0 16.453-7.378 16.453-16.47-.017-9.093-7.394-16.503-16.453-16.503z"/><path d="M435.533 117.719H98.91V.448h336.623v117.27zm-325.8-10.842h314.942l.017-95.588H109.734v95.588z"/><path d="M504.793 131.31h-32.09l-1.366-3.364c-2.548-6.212-8.51-10.225-15.204-10.225a16.474 16.474 0 00-15.27 10.225l-1.366 3.347h-14.805V28.295h5.412c29.392 0 50.74 6.561 63.449 19.5 11.374 11.591 11.257 24.08 11.24 24.613l.017 58.9-.017.002zm-25.08-10.842h14.255v-48.16c0-1.35-.749-31.325-58.435-33.09v77.018c5.08-5.845 12.523-9.359 20.6-9.359a27.18 27.18 0 0123.58 13.59v.001z"/><path d="M396.214 128.811H434.2v10.842h-37.986zM209.283 128.811h85.762v10.842h-85.762zM504.793 94.906h-54.104v-45.33h44.546l1.615 2.099c7.96 10.291 7.96 20.233 7.96 20.666l-.017 22.565zm-43.28-10.84h32.44V72.307c0-.233-.133-5.562-4.196-11.89h-28.244v23.647z"/></g><g fill-rule="nonzero"><path d="M132 124c5.523 0 10 4.477 10 10s-4.477 10-10 10-10-4.477-10-10 4.477-10 10-10zm0 7.5a2.5 2.5 0 100 5 2.5 2.5 0 000-5zM187 124c5.523 0 10 4.477 10 10s-4.477 10-10 10-10-4.477-10-10 4.477-10 10-10zm0 7.5a2.5 2.5 0 100 5 2.5 2.5 0 000-5zM319 124c5.523 0 10 4.477 10 10s-4.477 10-10 10-10-4.477-10-10 4.477-10 10-10zm0 7.5a2.5 2.5 0 100 5 2.5 2.5 0 000-5zM374 124c5.523 0 10 4.477 10 10s-4.477 10-10 10-10-4.477-10-10 4.477-10 10-10zm0 7.5a2.5 2.5 0 100 5 2.5 2.5 0 000-5zM456 124c5.523 0 10 4.477 10 10s-4.477 10-10 10-10-4.477-10-10 4.477-10 10-10zm0 7.5a2.5 2.5 0 100 5 2.5 2.5 0 000-5z"/></g></g><g fill="#134398"><path d="M317.794 70.039l-98.84-.004c-6.618 0-11.984-5.354-11.984-11.957 0-6.604 5.366-11.958 11.985-11.958l98.84.005c6.618 0 11.984 5.353 11.984 11.957 0 6.604-5.366 11.957-11.985 11.957zm0-27.875l-98.84-.005c-8.81 0-15.954 7.127-15.954 15.919 0 8.792 7.144 15.917 15.955 15.917l98.84.005c8.811 0 15.955-7.127 15.955-15.918s-7.144-15.918-15.956-15.918z"/><path d="M217.578 50.046h7.522v4.068h-1.312l1.709 6.751 3.019-10.82h3.853l3.178 10.582 1.51-6.513h-1.351v-4.068h7.548v4.068h-1.351l-3.337 11.89h-5.522l-2.622-7.926-2.7 7.926h-5.364l-3.403-11.89h-1.377v-4.068M277.883 66.01l4.51-11.89h1.377v-4.068h-7.522v4.069h1.312l-2.387 6.557-2.356-6.557h1.31v-4.069h-7.522v4.069h1.378l4.509 11.89h5.391M287.07 50.046h8.74v4.068h-2.105v7.821h2.105v4.069h-8.74v-4.069h1.589v-7.821h-1.588v-4.068M317.064 62.37v-6.102c0-3.59-2.88-6.502-6.48-6.502-1.647 0-3.151.61-4.299 1.616v-1.336h-6.025v4.068h1.588v7.821h-1.588v4.069h8.7v-4.069h-2.067l.004-5.443a2.694 2.694 0 012.698-2.69c1.489 0 2.7 1.217 2.7 2.704v9.498h6.714v-3.633h-1.945M253.434 62.118a4.046 4.046 0 01-4.05-4.04 4.046 4.046 0 014.05-4.04 4.045 4.045 0 014.049 4.04 4.045 4.045 0 01-4.05 4.04zm10.755-8.004v-4.068h-6.091v1.357a8.37 8.37 0 00-5.069-1.7c-4.635 0-8.394 3.75-8.394 8.375s3.759 8.375 8.394 8.375c1.904 0 3.66-.634 5.069-1.701v1.252h6.091v-4.069h-1.96v-7.821h1.96z"/></g></g></svg>
