<svg xmlns="http://www.w3.org/2000/svg" xmlns:xlink="http://www.w3.org/1999/xlink" width="506" height="169" xmlns:v="https://vecta.io/nano"><defs><filter ><feColorMatrix in="SourceGraphic" values="0 0 0 0 0.074510 0 0 0 0 0.262745 0 0 0 0 0.596078 0 0 0 1.000000 0"/></filter><path id="B" d="M132 124c5.523 0 10 4.477 10 10s-4.477 10-10 10-10-4.477-10-10 4.477-10 10-10zm0 7.5a2.5 2.5 0 1 0 0 5 2.5 2.5 0 1 0 0-5z"/></defs><g fill-rule="evenodd"><rect fill="#e7ecf4" y="149.586" width="506" height="18.828" rx="8"/><g fill="#134398"><path d="M0 105h93v12H0z"/><g fill-rule="nonzero"><path d="M132.048 161.552c-15.071 0-27.344-12.257-27.344-27.311 0-15.088 12.273-27.344 27.344-27.344 15.054 0 27.311 12.273 27.311 27.344 0 15.054-12.257 27.311-27.311 27.311zm0-43.83c-9.109 0-16.503 7.411-16.503 16.503s7.411 16.47 16.503 16.47a16.49 16.49 0 0 0 16.47-16.47c0-9.092-7.377-16.503-16.47-16.503zm55.335 43.83c-15.088 0-27.344-12.257-27.344-27.311 0-15.088 12.257-27.344 27.344-27.344 15.054 0 27.311 12.273 27.311 27.344 0 15.054-12.257 27.311-27.311 27.311h0zm0-43.83c-9.109 0-16.503 7.411-16.503 16.503s7.411 16.47 16.503 16.47a16.49 16.49 0 0 0 16.47-16.47c0-9.092-7.377-16.503-16.47-16.503h0zm131.596 43.83c-15.071 0-27.328-12.257-27.328-27.311 0-15.088 12.257-27.344 27.328-27.344s27.311 12.273 27.311 27.344c0 15.054-12.223 27.311-27.311 27.311zm0-43.83c-9.109 0-16.486 7.411-16.486 16.503s7.394 16.47 16.486 16.47 16.47-7.377 16.47-16.47-7.377-16.503-16.47-16.503zm55.335 43.83c-15.071 0-27.344-12.257-27.344-27.311 0-15.088 12.273-27.344 27.344-27.344s27.311 12.273 27.311 27.344c0 15.054-12.24 27.311-27.311 27.311zm0-43.83c-9.109 0-16.503 7.411-16.503 16.503s7.411 16.47 16.503 16.47 16.47-7.377 16.47-16.47-7.377-16.503-16.47-16.503zm81.819 43.83c-15.088 0-27.344-12.257-27.344-27.311 0-15.088 12.257-27.344 27.344-27.344 15.054 0 27.294 12.273 27.294 27.344 0 15.054-12.257 27.311-27.294 27.311zm0-43.83c-9.109 0-16.52 7.411-16.52 16.503s7.411 16.47 16.52 16.47c9.059 0 16.453-7.377 16.453-16.47-.017-9.092-7.394-16.503-16.453-16.503z"/><path d="M435.533 117.719H98.91V.448h336.623v117.271zm-325.799-10.841h314.941l.017-95.589H109.734v95.589z"/><path d="M504.793 131.31h-32.09l-1.366-3.364c-2.548-6.211-8.51-10.225-15.204-10.225-6.711 0-12.706 4.013-15.271 10.225l-1.366 3.347h-14.805V28.295h5.412c29.392 0 50.74 6.561 63.449 19.501 11.374 11.591 11.257 24.08 11.241 24.613v58.901zm-25.079-10.841h14.255V72.307c0-1.349-.749-31.324-58.435-33.089v77.018c5.079-5.845 12.523-9.359 20.6-9.359a27.18 27.18 0 0 1 23.58 13.589v.002z"/><path d="M396.214 128.811H434.2v10.841h-37.986zm-186.931 0h85.762v10.841h-85.762zm295.51-33.905h-54.104v-45.33h44.546l1.615 2.098c7.96 10.292 7.96 20.233 7.96 20.667l-.018 22.565zm-43.28-10.841h32.44V72.308c0-.233-.133-5.562-4.197-11.89h-28.244v23.647z"/><use xlink:href="#B"/><use xlink:href="#B" x="55"/><use xlink:href="#B" x="187"/><use xlink:href="#B" x="242"/><use xlink:href="#B" x="324"/></g><path d="M85.749 85.761L51.819 26.81c-2.926-5.081-7.714-5.081-10.64 0L7.248 85.761C4.322 90.841 6.719 95 12.567 95h67.862c5.856.004 8.248-4.155 5.322-9.239h-.002zM52 46l-1.385 27h-7.167L42 46h10zm-5.469 41C43.214 87 41 84.645 41 81.5c0-3.202 2.275-5.5 5.531-5.5s5.408 2.294 5.469 5.5c-.004 3.145-2.152 5.5-5.469 5.5z" fill-rule="nonzero"/></g><g fill="#134398"><path d="M317.794 70.039l-98.84-.004c-6.619 0-11.984-5.354-11.984-11.957s5.366-11.958 11.984-11.958l98.84.005c6.619 0 11.984 5.353 11.984 11.957s-5.366 11.957-11.984 11.957zm0-27.875l-98.84-.005c-8.811 0-15.955 7.127-15.955 15.918s7.144 15.918 15.955 15.918l98.84.005c8.812 0 15.956-7.127 15.956-15.918s-7.144-15.918-15.956-15.918h0zm-100.216 7.882h7.521v4.068h-1.312l1.709 6.751 3.019-10.819h3.853l3.178 10.582 1.509-6.514h-1.351v-4.068h7.548v4.068h-1.351l-3.337 11.89h-5.522l-2.622-7.926-2.701 7.926h-5.363l-3.404-11.89h-1.376v-4.068m60.307 15.965l4.509-11.89h1.378v-4.069h-7.522v4.069h1.312l-2.387 6.557-2.356-6.557h1.311v-4.069h-7.522v4.069h1.378l4.508 11.89h5.392m9.187-15.965h8.739v4.068h-2.105v7.822h2.105v4.069h-8.739v-4.069h1.588v-7.822h-1.588v-4.068"/><path d="M317.064 62.371v-6.103c0-3.591-2.88-6.502-6.48-6.502a6.5 6.5 0 0 0-4.299 1.616v-1.336h-6.025v4.068h1.589v7.822h-1.589v4.069h8.7v-4.069h-2.067l.005-5.443c0-1.485 1.208-2.69 2.698-2.69a2.71 2.71 0 0 1 2.7 2.704v9.498h6.714v-3.633h-1.946m-63.63-.254c-2.237 0-4.051-1.809-4.051-4.041s1.814-4.041 4.051-4.041 4.049 1.809 4.049 4.041-1.813 4.041-4.049 4.041zm10.755-8.005v-4.068h-6.091v1.357a8.37 8.37 0 0 0-5.068-1.7c-4.636 0-8.394 3.75-8.394 8.375s3.758 8.375 8.394 8.375c1.904 0 3.659-.634 5.068-1.701v1.252h6.091v-4.069h-1.96v-7.822h1.96z"/></g></g></svg>