<svg width="30" height="30" xmlns="http://www.w3.org/2000/svg"><g fill="currentColor" fill-rule="nonzero"><path d="M27.843 6.362L21.583.155A.492.492 0 0021.216 0H6.014A2.015 2.015 0 004 1.997v9.9a.52.52 0 00.522.517.52.52 0 00.521-.518v-9.9c0-.53.435-.961.97-.961h14.683v5.69a.516.516 0 00.521.517h5.74v20.761a.966.966 0 01-.97.963H6.013a.966.966 0 01-.97-.963v-2.658a.52.52 0 00-.522-.517.52.52 0 00-.522.517v2.658A2.015 2.015 0 006.014 30h19.972A2.015 2.015 0 0028 28.003V6.724a.484.484 0 00-.157-.362zM21.74 1.77l4.476 4.438H21.74V1.769z"/><path d="M24 22.38v-6.76a1.579 1.579 0 00-.494-1.149A1.735 1.735 0 0022.303 14H3.697a1.735 1.735 0 00-1.203.471A1.579 1.579 0 002 15.62v6.76c-.003.43.176.844.494 1.149.32.303.753.473 1.203.471h18.606c.45.002.884-.168 1.203-.471.318-.305.497-.72.494-1.149zm-14.143-.74l-1.341-2-1.34 2H5.948l1.876-2.68-1.75-2.53h1.142l1.226 1.76 1.215-1.76H10.8l-1.708 2.53 1.875 2.68h-1.11zm5.437 0h-3.446v-5.21h.922v4.38h2.493l.031.83zm4.254-.36a2.246 2.246 0 01-1.415.42 3.412 3.412 0 01-2.273-.84l.576-.67a2.657 2.657 0 001.718.69c.252.011.5-.051.713-.18a.593.593 0 00.262-.49.532.532 0 00-.252-.47 2.779 2.779 0 00-.848-.3 9.103 9.103 0 01-.912-.26 1.715 1.715 0 01-.555-.3 1.224 1.224 0 01-.482-1.07 1.277 1.277 0 01.545-1.12 2.306 2.306 0 011.362-.39c.356-.001.71.052 1.047.16.325.104.626.264.89.47l-.492.66a2.012 2.012 0 00-.66-.34 2.588 2.588 0 00-.817-.14 1.275 1.275 0 00-.66.16c-.169.1-.27.28-.262.47a.565.565 0 00.262.49c.346.171.717.294 1.1.36.46.087.893.272 1.268.54.283.26.436.625.419 1 .017.447-.194.876-.566 1.15h.032z"/></g></svg>
