<svg width="24" height="24" xmlns="http://www.w3.org/2000/svg"><g fill="currentColor" fill-rule="nonzero"><path d="M6.03 20.953c-1.566 0-2.842-1.286-2.842-2.866 0-1.583 1.276-2.87 2.843-2.87 1.566 0 2.839 1.289 2.839 2.87 0 1.58-1.273 2.866-2.84 2.866zm0-4.6c-.946 0-1.715.778-1.715 1.732 0 .955.77 1.729 1.716 1.729a1.72 1.72 0 001.712-1.729c0-.954-.767-1.731-1.712-1.731zM17.92 20.953c-1.568 0-2.842-1.286-2.842-2.866 0-1.583 1.274-2.87 2.842-2.87 1.565 0 2.837 1.289 2.837 2.87 0 1.58-1.274 2.866-2.837 2.866zm0-4.6c-.947 0-1.717.778-1.717 1.732 0 .955.77 1.729 1.717 1.729.942 0 1.71-.774 1.71-1.729-.001-.954-.768-1.731-1.71-1.731z"/><path d="M15.779 16.353H1.112V4.047H15.78v12.306zM2.242 15.216h12.41V5.185H2.242V15.216z"/><path d="M22.978 17.78h-3.335l-.142-.354a1.703 1.703 0 00-1.58-1.073c-.698 0-1.322.422-1.588 1.073l-.142.352h-1.539V6.969h.563c3.055 0 5.274.689 6.595 2.047 1.182 1.216 1.17 2.526 1.169 2.582l.001 6.181h-.002zm-2.607-1.138h1.482v-5.054c0-.142-.078-3.287-6.074-3.473v8.083a2.82 2.82 0 014.592.444z"/><path d="M8.307 17.517h7.333v1.138H8.307zM22.978 13.96h-5.624V9.201h4.63l.169.22c.827 1.08.827 2.124.827 2.17l-.002 2.367zm-4.498-1.138h3.372v-1.234c0-.025-.014-.584-.437-1.248H18.48v2.482z"/></g></svg>
