<svg width="24" height="24" xmlns="http://www.w3.org/2000/svg">
  <path d="M21.6912222 18.4494105l-8.377949-14.51141028c-.7224627-1.25066696-1.904732-1.25066696-2.6270678 0L2.30825645 18.4494105c-.72246268 1.2506669-.13081301 2.2743742 1.31310263 2.2743742H20.3775106c1.4458895.0009902 2.0365294-1.0227178 1.3140921-2.2743742h-.0003805zm-8.4850106-9.8595594l-.3270452 6.7281351h-1.6926638l-.341912-6.7281351h2.361621zm-1.172375 10.1738942c-.801744 0-1.3368743-.5787414-1.3368743-1.3517412 0-.7868772.5500225-1.3517412 1.3368743-1.3517412.7868773 0 1.3071407.5638999 1.3220076 1.3517412-.000991.7729998-.5202889 1.3517412-1.3220076 1.3517412z" fill="currentColor" fill-rule="nonzero"/>
</svg>
