<?xml version="1.0" encoding="utf-8"?>
<!-- Generator: Adobe Illustrator 24.0.1, SVG Export Plug-In . SVG Version: 6.00 Build 0)  -->
<svg version="1.1" id="Layer_1" xmlns="http://www.w3.org/2000/svg" xmlns:xlink="http://www.w3.org/1999/xlink" x="0px" y="0px"
	 viewBox="0 0 12.7 17" style="enable-background:new 0 0 12.7 17;" xml:space="preserve">
<title>icon-call</title>
<g id="where-to-buy">
	<g id="M:-Where-to-buy---loaded" transform="translate(-229.000000, -1203.000000)">
		<g id="icon-call" transform="translate(229.911272, 1203.128348)">
			<path id="Path" class="st0" d="M-0.7,2.4C-0.5,1.9,1,0.4,2,0.1c0.3-0.1,0.8,0.1,1,0.5l1.7,3.3c0.2,0.4-0.2,0.6-0.7,1L3,5.4
				c-1.3,0.8,3,7.6,4.2,6.8l1-0.6c0.5-0.3,1-0.5,1.2-0.2l2.2,3.1c0.3,0.2,0.2,0.8,0,1c-0.7,0.7-2.7,1.5-3.3,1.4
				C3.9,16.1-2,6.6-0.7,2.4L-0.7,2.4z"/>
		</g>
	</g>
</g>
</svg>
