<?xml version="1.0" encoding="UTF-8"?>
<svg width="24px" height="24px" viewBox="0 0 24 24" version="1.1" xmlns="http://www.w3.org/2000/svg" xmlns:xlink="http://www.w3.org/1999/xlink">
    <title>Question</title>
    <g id="Question" stroke="none" stroke-width="1" fill="none" fill-rule="evenodd">
        <g id="icon---question" transform="translate(3.000000, 2.000000)" fill="#134398" fill-rule="nonzero">
            <path d="M15.1051831,2.12897947 C13.3804164,0.70087381 11.267153,-0.000599145272 9.16994371,4.24120495e-07 C6.57138136,-0.000780383452 3.98590321,1.07655004 2.17592311,3.15936912 C0.714813312,4.83825226 -0.000622076945,6.89613159 4.89646418e-07,8.93751109 C-0.000810240107,11.3570868 1.00515779,13.7686626 2.96367463,15.521845 L2.79979823,20.0000004 L3.98994061,19.2336077 L6.63149389,17.5312848 C7.4662862,17.7648824 8.31893947,17.8797213 9.16505064,17.8797213 C11.8122114,17.8797213 14.3864746,16.7594125 16.1582405,14.721153 C17.6177096,13.0414899 18.3341626,10.9835905 18.3333326,8.94301104 C18.3341431,6.41643641 17.2381226,3.89766171 15.1052745,2.12907947 L15.1051831,2.12897947 Z M15.0354132,13.8156621 C13.5442928,15.5312649 11.3855463,16.4688355 9.16580246,16.4688355 C8.35778083,16.4688355 7.54244866,16.3446187 6.74813428,16.0883793 L6.40659529,15.9782244 L4.36463038,17.2946112 L4.45062468,14.9024352 L4.18453788,14.6821174 C2.38919962,13.1938524 1.4651025,11.0767536 1.46344102,8.93757509 C1.46425224,7.21025244 2.06539699,5.48060981 3.29772032,4.06502403 C4.8261618,2.30880166 6.98663213,1.41185067 9.16961557,1.41105068 C10.9300834,1.41183187 12.6961172,1.99542481 14.1492934,3.19853273 C15.9454417,4.68757777 16.8670673,6.80469651 16.8687288,8.94387503 C16.8671062,10.6696377 16.2659629,12.3992403 15.0352595,13.8156261 L15.0354132,13.8156621 Z M8.16891154,13.6922253 L9.94235973,13.6922253 L9.94235973,11.9953624 L8.16891154,11.9953624 L8.16891154,13.6922253 Z M10.7431747,5.26410998 C10.2247706,5.00707257 9.62200467,4.87817386 8.93566604,4.87817386 C8.15036521,4.87817386 7.49079725,5.08441179 6.95617295,5.49534766 C6.32337567,5.98752272 6.00698741,6.71409542 6.00698741,7.67652576 L7.72282361,7.67652576 L7.72282361,7.66558847 C7.72282361,7.29841215 7.80313979,6.99763518 7.96294972,6.76247754 C8.18361568,6.44686071 8.54301563,6.28904229 9.03869887,6.28904229 C9.34374749,6.28904229 9.60335451,6.36638551 9.81670993,6.52027997 C10.0836275,6.73355783 10.2174809,7.05621459 10.2174809,7.48981023 C10.2174809,7.7616875 10.148523,8.00386507 10.0114173,8.21714293 C9.89702819,8.40776501 9.71367918,8.59525913 9.46219267,8.77885729 C8.92837835,9.13119375 8.58114878,9.48041024 8.4213347,9.82572677 C8.28422897,10.1124439 8.21527112,10.5671193 8.21527112,11.1913331 L9.82888446,11.1913331 C9.82888446,10.7796172 9.88567402,10.4718003 10.0008731,10.2663423 C10.0925476,10.097594 10.2832009,9.91790585 10.5728185,9.72650777 C11.0766222,9.36635139 11.4343815,9.03197475 11.6485676,8.72417784 C11.9073647,8.35700152 12.0379781,7.92730584 12.0379781,7.43513078 C12.0363555,6.41404104 11.6055767,5.6906083 10.743183,5.26415258 L10.7431747,5.26410998 Z" id="Shape"></path>
        </g>
    </g>
</svg>