<svg width="52" height="52" xmlns="http://www.w3.org/2000/svg">
  <g fill="none" fill-rule="evenodd">
    <path d="M48.4291459 11.0275567L37.7415269.2690383c-.1603143-.17482737-.3874276-.27120648-.6234729-.26900128H11.16509501C9.27027991.00904076 7.73616483 1.5533185 7.72727273 3.46070341V20.6203969c0 .4953394.39855984.8965432.89063491.8965432.49207508 0 .89063492-.4012038.89063492-.8965432V3.46070341c0-.92121608.74146426-1.66754167 1.65655245-1.66754167H36.2277041v9.86226216c0 .2375825.0935152.4662024.26051.6343222.1669947.1681198.3941081.2622382.630142.2622382h9.7972691v35.9873876c0 .9212161-.7414643 1.6675417-1.6565525 1.6675417H11.16585311c-.91514519 0-1.65655244-.746383-1.65655244-1.6675417v-4.6082034c0-.4953394-.39855984-.8965432-.89063492-.8965432s-.89063491.4012038-.89063491.8965432v4.6082034C7.73693718 50.4467568 9.27103802 51.9910489 11.16585311 52H45.2590727c1.8948151-.0089654 3.4289302-1.5532432 3.4378603-3.4606281V11.655728c.0021885-.2375825-.0935532-.4662025-.2672285-.627609l-.0005586-.0005623zm-10.420286-7.96130361l7.6415051 7.69219721h-7.6415051V3.06625309z" fill="currentColor" fill-rule="nonzero"/>
    <path d="M28 37.9219651V25.0780349c.0029436-.8170259-.1994376-1.6031049-.5610595-2.1825865-.3630924-.5771226-.8556549-.9001391-1.3675393-.8954484H4.9285988c-.51192249-.004698-1.00445454.3183014-1.36753932.8954484C3.1994528 23.4749422 2.99706094 24.2610698 3 25.0780349v12.8439302c-.00294363.8170259.19943756 1.6031049.56105948 2.1825865.3630924.5771226.85565493.9001391 1.36753932.8954484h21.1428024c.5119225.004698 1.0044545-.3183014 1.3675393-.8954484.3616067-.5794938.5639986-1.3656214.5610595-2.1825865z" fill="currentColor" fill-rule="nonzero"/>
    <text font-family="HelveticaNeueLTStd-Md, Helvetica Neue LT Std" font-size="17" font-weight="400" fill="#FFF" transform="translate(3)">
      <tspan x="7.9" y="35">+</tspan>
    </text>
  </g>
</svg>