<svg width="100" height="100" xmlns="http://www.w3.org/2000/svg">
  <path d="M50 6c14.4460724 0 26.1621622 11.9823645 26.1621622 26.7567568 0 8.2385283-3.6430298 15.6088967-9.3710026 20.5176073C82.7618928 59.7824309 94 75.299253 94 93.4054054l-.005.5935946-13.0819048.0009318c.0038766-.1977179.0058237-.3958991.0058237-.5945264 0-16.7476619-13.8428715-30.3243243-30.9189189-30.3243243S19.0810811 76.6577435 19.0810811 93.4054054c0 .1986273.0019471.3968085.0058237.5945264l-13.08286852-.0005036C6.00134828 93.8017369 6 93.6037265 6 93.4054054 6 75.2996311 17.2376378 59.783079 33.2076933 53.2730608c-5.7271473-4.9074073-9.3698555-12.2777757-9.3698555-20.516304C23.8378378 17.9730563 35.5539276 6 50 6zm0 13.0810811c-7.2230362 0-13.0810811 6.1195621-13.0810811 13.6756757 0 7.551356 5.8575278 13.6756756 13.0810811 13.6756756 7.2230362 0 13.0810811-6.1243196 13.0810811-13.6756756 0-7.5513561-5.8580449-13.6756757-13.0810811-13.6756757z" fill="CurrentColor" fill-rule="nonzero"/>
</svg>
