<svg width="24" height="24" xmlns="http://www.w3.org/2000/svg"><g fill="currentColor" fill-rule="nonzero"><path d="M18.254 2a3.72 3.72 0 00-2.649 1.095L8.816 9.888A6.15 6.15 0 007 14.27V17h2.73a6.153 6.153 0 004.379-1.816l6.796-6.79A3.749 3.749 0 0018.254 2zm1.264 5.008l-6.789 6.793a4.213 4.213 0 01-3 1.242h-.772v-.773a4.21 4.21 0 011.241-2.996l6.793-6.793a1.79 1.79 0 012.53 2.531l-.003-.004z"/><path d="M5.477 22h11.38a3.477 3.477 0 003.476-3.477v-5.057h-1.896v5.057a1.582 1.582 0 01-1.58 1.58H5.476a1.58 1.58 0 01-1.58-1.58V7.143c0-.872.707-1.58 1.58-1.58h5.057V3.667H5.477A3.477 3.477 0 002 7.144v11.379A3.477 3.477 0 005.477 22z"/></g></svg>
