<?xml version="1.0" encoding="UTF-8"?>
<svg width="59px" height="39px" viewBox="0 0 59 39" version="1.1" xmlns="http://www.w3.org/2000/svg" xmlns:xlink="http://www.w3.org/1999/xlink">
    <title>upload</title>
    <g id="upload" stroke="none" stroke-width="1" fill="none" fill-rule="evenodd">
        <g id="np_upload_3365031_000000" fill="#134398" fill-rule="nonzero">
            <path d="M43.5008613,15.9772827 C43.4985562,16.0944689 43.493947,16.211655 43.4893379,16.3288472 C44.7361924,15.8577505 46.0867105,15.5999662 47.494931,15.5999662 C53.8492691,15.5999662 59,20.8382737 59,27.2999831 C59,33.7616924 53.8489741,39 47.494931,39 C47.4396181,39 47.3819984,39 47.3266856,38.9976564 C47.2828961,38.9976564 47.2414123,38.9976564 47.1999292,38.9953128 L47.1999292,39 L29.7488045,39 L29.7488045,21.002374 L36.9073174,28.3709846 C37.506525,28.9897055 38.4791459,28.9897055 39.0806545,28.3709846 C39.6798621,27.7546037 39.6798621,26.7514623 39.0806545,26.1350214 L29.2995758,16.0640068 C28.7003682,15.4452859 27.7254464,15.4452859 27.1262388,16.0640068 L17.3451601,26.1350214 C16.7459525,26.7514023 16.7459525,27.7545437 17.3451601,28.3709846 C17.9466687,28.9897055 18.9192895,28.9897055 19.5184971,28.3709846 L26.6770101,21.002374 L26.6770101,39 L13.5700814,39 L13.5700814,38.9976564 C6.0498963,38.8382842 0,32.5872471 0,24.900036 C0,17.2146249 6.04517627,10.9662159 13.5653614,10.8024156 C15.5543223,4.53540656 21.339248,0 28.165589,0 C36.6374498,0 43.505681,6.9846101 43.505681,15.6000226 C43.505681,15.7265867 43.505681,15.8531509 43.5010719,15.9773691 L43.5008613,15.9772827 Z" id="Path"></path>
        </g>
    </g>
</svg>