<svg width="24" height="24" xmlns="http://www.w3.org/2000/svg" xmlns:xlink="http://www.w3.org/1999/xlink"><defs><path d="M42.438 394.656l10.5-8.4a1.167 1.167 0 011.457 0l10.5 8.4c.277.221.438.556.438.91v12.273c0 .645-.522 1.167-1.166 1.167h-21A1.167 1.167 0 0142 407.839v-12.272c0-.355.161-.69.438-.911zm15.895 12.017H63v-10.546l-9.333-7.466-9.334 7.466v10.546H49v-4.667a4.667 4.667 0 119.333 0v4.667zm-2.333 0v-4.667a2.333 2.333 0 10-4.667 0v4.667H56z" id="a"/></defs><use fill="currentColor" fill-rule="nonzero" xlink:href="#a" transform="translate(-42 -386)"/></svg>
