<?xml version="1.0" encoding="utf-8"?>
<!-- Generator: Adobe Illustrator 24.0.1, SVG Export Plug-In . SVG Version: 6.00 Build 0)  -->
<svg version="1.1" id="Layer_1" xmlns="http://www.w3.org/2000/svg" xmlns:xlink="http://www.w3.org/1999/xlink" x="0px" y="0px"
	 viewBox="0 0 16 16" style="enable-background:new 0 0 16 16;" xml:space="preserve">
<title>icon-website</title>
<g id="where-to-buy">
	<g id="M:-Where-to-buy---loaded" transform="translate(-311.000000, -1203.000000)">
		<g id="Stacked-Group" transform="translate(20.500000, 1191.000000)">
			<g id="Group-7" transform="translate(259.000000, 0.000000)">
				
					<g id="icon-website" transform="translate(40.500000, 21.000000) scale(-1, 1) translate(-40.500000, -21.000000) translate(32.000000, 12.500000)">
					<path id="Shape" class="st0" d="M9.5-0.5c-2.1,0-4.2,0.8-5.7,2.3C2.3,3.4,1.5,5.4,1.5,7.5s0.8,4.2,2.3,5.7
						c1.5,1.5,3.5,2.3,5.7,2.3s4.2-0.8,5.7-2.3c1.5-1.5,2.3-3.5,2.3-5.7s-0.8-4.2-2.3-5.7C13.6,0.4,11.6-0.5,9.5-0.5L9.5-0.5z
						 M15,4.3h-1.9c-0.2-0.9-0.5-1.8-0.9-2.6C13.4,2.3,14.4,3.2,15,4.3L15,4.3z M8.1,2.6c0.5-1,1-1.5,1.4-1.5c0.4,0,0.9,0.5,1.4,1.5
						c0.3,0.6,0.5,1.1,0.6,1.7h-4C7.6,3.7,7.8,3.1,8.1,2.6L8.1,2.6z M3.3,9.1C3,8.1,3,7,3.3,5.9h2.3C5.4,7,5.4,8,5.5,9.1H3.3z
						 M3.9,10.7h1.9l0,0c0.2,0.9,0.5,1.8,0.9,2.6C5.5,12.7,4.6,11.8,3.9,10.7L3.9,10.7z M5.8,4.3H3.9c0.6-1.1,1.6-2,2.8-2.6
						C6.3,2.6,6,3.4,5.8,4.3L5.8,4.3z M10.9,12.5c-0.5,1-1,1.5-1.4,1.5s-0.9-0.5-1.4-1.5c-0.3-0.6-0.5-1.1-0.6-1.7h4
						C11.3,11.3,11.1,11.9,10.9,12.5z M11.8,9.1H7.2C7.1,8.6,7.1,8,7.1,7.5c0-0.5,0-1.1,0.1-1.6h4.6C11.9,7,11.9,8,11.8,9.1
						L11.8,9.1z M12.2,13.3c0.4-0.8,0.7-1.7,0.9-2.6H15C14.4,11.8,13.4,12.7,12.2,13.3L12.2,13.3z M15.9,7.5c0,0.5-0.1,1.1-0.2,1.6
						h-2.3c0.1-1.1,0.1-2.1,0-3.2h2.3C15.8,6.4,15.9,7,15.9,7.5z"/>
				</g>
			</g>
		</g>
	</g>
</g>
</svg>
