<svg width="24" height="24" xmlns="http://www.w3.org/2000/svg"><g fill="currentColor" fill-rule="nonzero"><path d="M12 23.956C5.397 23.956.044 18.603.044 12S5.397.044 12 .044 23.956 5.397 23.956 12 18.603 23.956 12 23.956zm0-21.739A9.776 9.776 0 002.217 12 9.776 9.776 0 0012 21.783 9.776 9.776 0 0021.783 12 9.776 9.776 0 0012 2.217z"/><path d="M12 18.25a1.09 1.09 0 01-1.087-1.088v-6.25c0-.597.489-1.087 1.087-1.087s1.087.49 1.087 1.088v6.25A1.09 1.09 0 0112 18.25zM13.087 7.38c0 1.45-2.174 1.45-2.174 0s2.174-1.45 2.174 0"/><path d="M12 8.74a1.345 1.345 0 01-1.358-1.36c0-.76.598-1.358 1.358-1.358.761 0 1.358.599 1.358 1.359S12.761 8.739 12 8.739zm0-2.174a.801.801 0 00-.815.815c0 .461.353.815.815.815a.801.801 0 00.815-.815.8.8 0 00-.815-.815z"/></g></svg>
