<svg width="100" height="100" xmlns="http://www.w3.org/2000/svg" xmlns:xlink="http://www.w3.org/1999/xlink"><defs><path d="M50.5.333A4.167 4.167 0 0154.667 4.5v8.333h16.666a4.167 4.167 0 110 8.334h-4.166v56.25a6.25 6.25 0 01-6.25 6.25H15.083a6.25 6.25 0 01-6.25-6.25v-56.25H4.667a4.167 4.167 0 110-8.334h16.666V4.5A4.167 4.167 0 0125.5.333h25zM29.667 33.667a4.167 4.167 0 00-4.167 4.166v25a4.167 4.167 0 108.333 0v-25a4.167 4.167 0 00-4.166-4.166zm16.666 0a4.167 4.167 0 00-4.166 4.166v25a4.167 4.167 0 108.333 0v-25a4.167 4.167 0 00-4.167-4.166zm0-25H29.667v4.166h16.666V8.667zm12.5 12.5H17.167v54.166h41.666V21.167z" id="a"/></defs><use fill="currentColor" fill-rule="nonzero" xlink:href="#a" transform="translate(12 8)"/></svg>
