<svg width="20" height="20" xmlns="http://www.w3.org/2000/svg"><path d="M10 0c5.5 0 10 4.5 10 10s-4.5 10-10 10S0 15.5 0 10 4.5 0 10 0zM4.666 4C3.066 5.503 2 7.688 2 10.078 2 13.903 4.534 17.113 8 18v-1.092c-.734 0-1.334-.615-1.334-1.366v-3.55l-1.6-1.64a1.368 1.368 0 01-.4-.956zm7.835-2v.21a1.39 1.39 0 01-1.376 1.397v2.795A1.39 1.39 0 019.75 7.799H7v.839l2.613 2.654h1.512c1.17 0 2.063.907 2.063 2.096v2.096a1.39 1.39 0 01-1.376 1.397V18C15.387 17.09 18 13.808 18 9.895v-.21c-.206.14-.413.21-.687.21a1.39 1.39 0 01-1.376-1.398A1.39 1.39 0 0117.313 7.1h.206c-.825-2.375-2.681-4.262-5.018-5.1z" fill="currentColor" fill-rule="nonzero"/></svg>