<?xml version="1.0" encoding="UTF-8"?>
<svg width="100px" height="100px" viewBox="0 0 100 100" version="1.1" xmlns="http://www.w3.org/2000/svg" xmlns:xlink="http://www.w3.org/1999/xlink">
    <title>browse</title>
    <g id="browse" stroke="none" stroke-width="1" fill="currentColor" fill-rule="evenodd">
        <g transform="translate(7.000000, 6.000000)" fill-rule="nonzero" id="Shape">
            <path d="M77.5451086,24.0007781 L9.59259364,24.0007781 C6.82850945,23.9778097 4.19124508,24.9555831 2.36964203,26.6749376 C0.544085365,28.3910162 -0.287491787,30.6844969 0.0887099454,32.9518542 L7.85016428,80.200714 C8.50355501,84.1250153 12.5744308,87.0353771 17.354048,86.999342 L69.6249014,86.999342 C74.4045186,87.0354351 78.4754248,84.1250153 79.1287851,80.200714 L86.8902395,32.9518542 C87.3099918,30.6813049 86.5140479,28.3680848 84.7043969,26.6257988 C82.883098,24.9392035 80.2774625,23.9843985 77.5451086,24.0007781 Z M67.1465111,72.3829199 C66.9790876,73.3143504 65.8955461,74.0065607 64.61935,73.9996036 L22.8455803,73.9996036 C21.5693842,74.006572 20.4858184,73.3144099 20.3184193,72.3829199 L17.0240091,39.1184438 C16.9229226,38.5818842 17.1440512,38.0383555 17.6305277,37.6318655 C18.1106883,37.2300256 18.7993296,37 19.5259389,37 L69.4515173,37 C70.181232,36.9954245 70.879343,37.2230565 71.3658519,37.6272274 C71.8491744,38.0290673 72.0734569,38.5656151 71.9786864,39.0998913 L67.1465111,72.3829199 Z M13.5,1 L73.5,1 C74.3284271,1 75,1.67157288 75,2.5 L75,12.5 C75,13.3284271 74.3284271,14 73.5,14 L13.5,14 C12.6715729,14 12,13.3284271 12,12.5 L12,2.5 C12,1.67157288 12.6715729,1 13.5,1 Z" transform="translate(43.500000, 43.999837) rotate(90.000000) translate(-43.500000, -43.999837) "></path>
        </g>
    </g>
</svg>
