<?xml version="1.0" encoding="utf-8"?>
<!-- Generator: Adobe Illustrator 24.0.1, SVG Export Plug-In . SVG Version: 6.00 Build 0)  -->
<svg version="1.1" id="Layer_1" xmlns="http://www.w3.org/2000/svg" xmlns:xlink="http://www.w3.org/1999/xlink" x="0px" y="0px"
	 viewBox="0 0 24 24" style="enable-background:new 0 0 24 24;" xml:space="preserve">
<style type="text/css">
	.st0{fill-rule:evenodd;clip-rule:evenodd;}
	.st1{fill:none;stroke:currentColor;stroke-width:2;}
	.st2{stroke:currentColor;stroke-width:2;}
</style>
<title>icon-store</title>
<g id="where-to-buy">
	<g id="M:-Where-to-buy---loaded" transform="translate(-33.000000, -628.000000)">
		<g id="icon-store" transform="translate(33.000000, 628.500000)">
			<rect id="Rectangle-Copy-3" x="2.4" y="21.1" class="st0" width="19.2" height="2.4"/>
			<rect id="Rectangle-Copy-3_1_" x="19.2" y="10.3" class="st0" width="2.4" height="10.8"/>
			<rect id="Rectangle-Copy-5" x="2.4" y="10.3" class="st0" width="2.4" height="10.8"/>
			<g id="Group-3">
				<path id="Rectangle" class="st1" d="M19.7,0.5H4.3L1.4,9.3h21.2L19.7,0.5z"/>
				<line id="Line" class="st2" x1="9.9" y1="0.4" x2="7" y2="9.6"/>
				<line id="Line-Copy" class="st2" x1="13.8" y1="0.4" x2="16.3" y2="8.5"/>
			</g>
			<g id="Group" transform="translate(7.200000, 13.927734)">
				<path id="Combined-Shape" class="st0" d="M2.4-0.3c0.1,1.2,1.1,2.2,2.4,2.2c1.3,0,2.4-1.1,2.4-2.4l0,0H9c0,2.3-1.9,4.2-4.2,4.2
					c-2.2,0-4.1-1.8-4.2-4l0-0.2h1.8L2.4-0.3z"/>
			</g>
		</g>
	</g>
</g>
</svg>
