<?xml version="1.0" encoding="utf-8"?>
<!-- Generator: Adobe Illustrator 24.0.1, SVG Export Plug-In . SVG Version: 6.00 Build 0)  -->
<svg version="1.1" id="Layer_1" xmlns="http://www.w3.org/2000/svg" xmlns:xlink="http://www.w3.org/1999/xlink" x="0px" y="0px"
	 viewBox="0 0 20 20" style="enable-background:new 0 0 20 20;" xml:space="preserve">

<title>icon-country</title>

<g id="icon-country">
	<path id="Shape" d="M10,0C4.5,0,0,4.5,0,10s4.5,10,10,10s10-4.5,10-10S15.5,0,10,0z M8.1,17.3
		c-3.2-0.8-5.6-3.8-5.6-7.3c0-2.2,1-4.2,2.5-5.6v4.9c0,0.3,0.1,0.6,0.4,0.9l1.5,1.5V15c0,0.7,0.6,1.3,1.3,1.3V17.3z M11.9,17.3v-1
		c0.7,0,1.3-0.6,1.3-1.3v-1.9c0-1.1-0.8-1.9-1.9-1.9H9.9L7.5,8.9V8.1H10c0.7,0,1.3-0.6,1.3-1.3V4.4c0.7,0,1.3-0.6,1.3-1.3V2.9
		c2.1,0.8,3.8,2.4,4.6,4.6h-0.2c-0.7,0-1.3,0.6-1.3,1.3s0.6,1.3,1.3,1.3c0.2,0,0.4-0.1,0.6-0.2V10C17.5,13.5,15.1,16.4,11.9,17.3z"
		/>
</g>
</svg>
